<svg xmlns="http://www.w3.org/2000/svg" width="1023" height="1752" viewBox="0 0 1023 1752">
  <defs>
    <style>
      .cls-1 {
        fill-rule: evenodd;
      }
    </style>
  </defs>
  <path id="Color_Fill_2" data-name="Color Fill 2" class="cls-1" d="M245,362H656c27.525,0,125.841-5.752,135,8,20.76,31.171-23.451,82.174-26,110,15.023,3.946,41.58,17.458,47,31,9.605,24-8.9,108.795-14,129q-4,17-8,34,12.5,28.5,25,57c13.477,33.81,22.317,70.7,30,110,14.6,74.665-9.413,149.572-30,198-17.84,41.97-32.8,81.94-55,119q-51.995,79.995-104,160c-10.314,17.46-25.082,47.26-20,77,3.849,22.52,18.4,45.03,5,64-17.329,4.96-44.96,3-67,3H442c-19.374,0-55.785,4.83-64-7-11.407-16.42,13.9-52.42,9-80-6.363-35.79-22.613-62.69-39-89q-42.495-63.99-85-128c-24.726-41.21-42.25-86.67-61-134-17.771-44.861-36.939-116.117-24-183,7.6-39.279,16.6-76.2,30-110q12.5-28.5,25-57-4-17-8-34c-6.043-23.843-22.791-95.724-15-126,5.357-20.816,43.315-23.932,48-38C248.709,449.717,205.217,383.874,245,362Zm19,36c2.561,18.557,17.813,36.233,24,54,11.947,34.309,14.66,96.691,6,137-24.666,114.815-111.009,222.635-77,368,22.283,95.25,70.324,176.43,118,248,30.876,46.35,70.763,91.17,85,153,5.4,23.47-3.4,51.55-3,69q94.991-.495,190-1v-1c-23.606-44.51,11.943-114.48,28-141,61.832-102.11,140.355-193.63,171-327,33.655-146.469-52.483-252.3-77-368-8.557-40.384-5.932-102.583,6-137,6.166-17.784,21.444-35.433,24-54H264Zm-5,119-14,10c-0.456,28.625,3.678,52.605,9,76h1C255.839,594,269.755,524.062,259,517Zm502,0c-0.533,30.179-2.331,65.132,8,86v-2c8.948-19.125,9.032-49.25,9-75Z"/>
</svg>
