<svg xmlns="http://www.w3.org/2000/svg" width="1752" height="1023" viewBox="0 0 1752 1023">
  <defs>
    <style>
      .cls-1 {
        fill-rule: evenodd;
      }
    </style>
  </defs>
  <path id="Color_Fill_1" data-name="Color Fill 1" class="cls-1" d="M1031,0c32.77,1.6,38.55,46.425,51,69q54.99,112.489,110,225,63.99,130.486,128,261c24.26,33.069,143.48,22,203,22l50,1c40.66,12.66,52.37,49.65,67,89l94,237c13.35,31.244,33.23,84.358,1,109-19.51,14.92-68.87,9-102,9H112c-45.8.01-91,4.44-109-23-8.606-13.12,2.45-39.352,7-50,18.124-42.41,36.5-74.223,59-111L260,529c39.632-61.771,53.072-117.367,134-140,26.034-7.281,64.037-4,96-4H681c39.669,0,91.125,5.557,114-12Q882.492,229.015,970,85C988.184,56.49,1000.49,16.189,1031,0Zm0,75L882,321c-11.352,18.448-43.95,84.9-58,94-36.229,23.453-101.16,18-162,18H490c-27.815,0-66-5.167-90,2-52.4,15.647-72.692,76.908-99,119Q213.51,696.986,126,840c-17.248,26.971-62.418,85.179-66,119,19.684,29.029,65.966,11.843,96,15H1580c30.52-1.866,73.51,9.955,107-11,10.87-31.875-4.81-60.53-16-88q-35.49-89.491-71-179c-14.45-34.2-18.07-61.123-57-71h-50c-70.35.006-172.13,12.836-204-27Q1160.015,336.526,1031,75Z"/>
</svg>
